# xmcd
#
# Track frame offsets:
# 150
# 22865
# 43060
# 62633
# 84179
# 113254
# 132636
# 152958
# 177489
# 200329
# 226518
# 251832
#
# Disc length: 3621 seconds
#
# Revision: 0
# Processed by: cddbd v1.4PL0 Copyright (c) Steve Scherf et al.
# Submitted via: Audion 2.6.0 (http://www.panic.com/audion/)
#
DISCID=920e230c
DTITLE=Fereydoun - New Album
DYEAR=1900
DGENRE=
TTITLE0=Bia Berim
TTITLE1=Fasseleha
TTITLE2=Afsooneh To ham
TTITLE3=Koocheh Be Koocheh
TTITLE4=Gharibeh
TTITLE5=Tehroon
TTITLE6=Be Yadeh Man Baash
TTITLE7=Kabootar
TTITLE8=Badeyeh Naab
TTITLE9=Dance Remix
TTITLE10=Kabootar (New Mix)
TTITLE11=Fasseleha (New Mix)
EXTD=
EXTT0=
EXTT1=
EXTT2=
EXTT3=
EXTT4=
EXTT5=
EXTT6=
EXTT7=
EXTT8=
EXTT9=
EXTT10=
EXTT11=
PLAYORDER=
